# xmcd
# 
# Track frame offsets:
#     150
#     22075
#     44728
#     67425
#     92958
#     114675
#     140378
#     155163
#     179173
#     196008
#     213345
#     239083
# 
# Disc length: 3428
# 
# Revision: 0
# Processed by: cddbd v1.5.2PL0 Copyright (c) Steve Scherf et al.
# Submitted via: BonkEnc v1.0.8
# 
DISCID=c60d620c
DTITLE=熱帯JAZZ楽団 - 熱帯JAZZ楽団 8 The Covers
DYEAR=2004
DGENRE=Jazz
TTITLE0=CELEBRATION
TTITLE1=I WISH
TTITLE2=I WANT YOU BACK
TTITLE3=DON'T STOP 'TIL YOU GET ENOUGH
TTITLE4=GOT TO BE REAL
TTITLE5=SEPTEMBER
TTITLE6=MISSION IMPOSSIBLE
TTITLE7=DEAR MR.JONES:IRONSIDE SOUL-BOSSANOVA-AI NO CORRIDA
TTITLE8=GETAWAY
TTITLE9=007 THE JAMES BOND THEME
TTITLE10=LUPIN THE THIRD
TTITLE11=BITTER SWEET BOMBA(BETTER SWEET SAMBA)
EXTD=YEAR: 2004
EXTT0=
EXTT1=
EXTT2=
EXTT3=
EXTT4=
EXTT5=
EXTT6=
EXTT7=
EXTT8=
EXTT9=
EXTT10=
EXTT11=
PLAYORDER=
